<?xml version="1.0" encoding="utf-8"?>
<!-- Generator: Adobe Illustrator 20.0.0, SVG Export Plug-In . SVG Version: 6.00 Build 0)  -->
<svg version="1.1" xmlns="http://www.w3.org/2000/svg" xmlns:xlink="http://www.w3.org/1999/xlink" x="0px" y="0px"
	 viewBox="0 0 595.3 841.9" style="enable-background:new 0 0 595.3 841.9;" xml:space="preserve">
<style type="text/css">
	.st0{fill:#1D71B8;}
	.st1{fill:none;stroke:#95C11F;stroke-width:3;stroke-miterlimit:10;}
	.st2{fill:none;stroke:#000000;stroke-miterlimit:10;}
	.st3{fill:#FFFFFF;stroke:#000000;stroke-miterlimit:10;}
	.st4{fill:none;stroke:#95C11F;stroke-miterlimit:10;}
	.st5{fill:#95C11F;stroke:#000000;stroke-miterlimit:10;}
	.st6{fill:none;}
	.st7{fill:#FFFFFF;}
	.st8{fill:none;stroke:#000000;stroke-width:0.75;stroke-miterlimit:10;}
	.st9{fill:#FFFFFF;stroke:#FFFFFF;stroke-width:0.25;stroke-miterlimit:10;}
	.st10{fill:#95C11F;}
	.st11{fill:#FFED00;stroke:#000000;stroke-miterlimit:10;}
	.st12{fill:#E30613;stroke:#000000;stroke-miterlimit:10;}
	.st13{stroke:#000000;stroke-width:0.1;stroke-miterlimit:10;}
	.st14{fill:#FFED00;}
	.st15{fill:#006633;stroke:#000000;stroke-miterlimit:10;}
	.st16{stroke:#000000;stroke-miterlimit:10;}
</style>
<g id="Ebene_1">
</g>
<g id="Ebene_3">
	<g>
		<path class="st0" d="M168.4,199.7v19.7c0,3.3-0.8,5.8-2.4,7.6c-1.6,1.8-3.6,2.6-6,2.6c-2,0-3.7-0.6-5.2-1.9
			c-1-0.8-1.7-2.1-2.3-3.7c-0.6,2.4-1.6,4.2-3,5.4c-1.4,1.2-3.2,1.7-5.4,1.7c-1.8,0-3.3-0.4-4.8-1.2c-1.4-0.8-2.5-1.9-3.3-3.4
			c-0.5-0.9-0.9-2.2-1.1-4c-0.3-2.4-0.5-3.9-0.5-4.7v-18.1H168.4z M141.7,210.3v5.4c0,1.8,0.3,3.1,1,3.8c0.6,0.7,1.5,1.1,2.6,1.1
			c1,0,1.8-0.4,2.4-1.1c0.6-0.7,0.9-2,0.9-3.9v-5.3H141.7z M155,210.3v4.6c0,1.6,0.3,2.8,0.8,3.4c0.6,0.6,1.4,1,2.4,1
			c1,0,1.8-0.3,2.3-1c0.6-0.6,0.8-1.8,0.8-3.4v-4.6H155z"/>
		<path class="st0" d="M151,244.7l1-9c1.6,0.3,2.8,0.8,3.7,1.5c0.9,0.6,1.7,1.6,2.4,2.8c0.5,0.9,0.9,2.1,1.1,3.6
			c0.3,1.5,0.4,3.2,0.4,4.9c0,2.8-0.2,5.1-0.5,6.8c-0.3,1.7-1,3.1-2,4.3c-0.7,0.8-1.7,1.4-3,1.9c-1.3,0.5-2.5,0.7-3.7,0.7h-10.9
			c-1.2,0-2.1,0.1-2.7,0.2s-1.5,0.5-2.5,1v-8.9c0.6-0.4,1.1-0.6,1.5-0.7c0.3-0.1,0.9-0.2,1.6-0.3c-1.2-1.2-2-2.5-2.6-3.7
			c-0.7-1.7-1-3.6-1-5.8c0-2.9,0.7-5.2,2-6.7c1.4-1.5,3-2.3,5-2.3c1.9,0,3.4,0.5,4.6,1.6c1.2,1.1,2.1,3.1,2.7,6.1
			c0.7,3.5,1.2,5.8,1.5,6.9c0.3,1.1,0.7,2.2,1.1,3.3c1.2,0,2-0.2,2.4-0.7c0.5-0.5,0.7-1.3,0.7-2.5c0-1.5-0.2-2.7-0.7-3.5
			C152.8,245.5,152.1,245,151,244.7z M146.1,252.8c-0.5-1.3-0.9-2.7-1.2-4.1c-0.5-1.9-1-3.1-1.5-3.6c-0.5-0.5-1.1-0.8-1.7-0.8
			c-0.7,0-1.4,0.3-1.8,0.8c-0.5,0.5-0.7,1.3-0.7,2.3c0,1.1,0.3,2,0.8,2.9c0.5,0.9,1.1,1.5,1.9,1.9c0.7,0.4,1.7,0.6,2.9,0.6H146.1z"
			/>
		<path class="st0" d="M168.4,293.7h-34v-8.8h3.6c-1.5-1.2-2.6-2.4-3.1-3.4c-0.7-1.4-1.1-2.9-1.1-4.5c0-3.4,1.3-5.9,3.8-7.7
			c2.6-1.8,5.7-2.7,9.3-2.7c4.1,0,7.2,1,9.4,2.9c2.2,2,3.2,4.4,3.2,7.5c0,1.5-0.2,2.8-0.7,4c-0.5,1.2-1.2,2.3-2.2,3.2h11.8V293.7z
			 M146.8,284.2c1.9,0,3.4-0.4,4.3-1.2c1-0.8,1.4-1.9,1.4-3.1c0-1.1-0.5-2-1.4-2.8c-0.9-0.7-2.4-1.1-4.6-1.1c-2,0-3.5,0.4-4.4,1.1
			c-0.9,0.8-1.4,1.7-1.4,2.8c0,1.2,0.5,2.2,1.4,3C143.1,283.8,144.6,284.2,146.8,284.2z"/>
		<path class="st0" d="M159,299.8v9.4h-24.6v-9.4H159z M168.4,299.8v9.4h-6.4v-9.4H168.4z"/>
		<path class="st0" d="M141.2,313.6l0.9,9.4c-1.1,0.4-1.9,0.9-2.4,1.6c-0.5,0.7-0.7,1.6-0.7,2.8c0,1.3,0.3,2.3,0.8,2.9
			c0.4,0.5,0.9,0.8,1.5,0.8c0.7,0,1.2-0.4,1.6-1.1c0.3-0.5,0.6-1.9,1-4.1c0.6-3.3,1.1-5.6,1.6-6.8c0.5-1.3,1.3-2.4,2.5-3.2
			c1.2-0.9,2.5-1.3,4-1.3c1.6,0,3,0.5,4.2,1.4c1.2,0.9,2.1,2.2,2.6,3.9c0.6,1.7,0.9,3.9,0.9,6.7c0,2.9-0.2,5.1-0.7,6.5
			c-0.4,1.4-1.1,2.6-2.1,3.5c-0.9,0.9-2.2,1.7-3.8,2.3l-0.9-9c0.8-0.2,1.4-0.6,1.7-1.2c0.5-0.7,0.7-1.6,0.7-2.7
			c0-1.1-0.2-1.8-0.6-2.3c-0.4-0.5-0.8-0.7-1.4-0.7c-0.6,0-1.1,0.3-1.4,0.9c-0.3,0.6-0.6,2-0.8,4c-0.4,3.1-0.8,5.5-1.5,7
			c-0.6,1.5-1.5,2.7-2.7,3.5s-2.5,1.2-3.9,1.2c-1.4,0-2.8-0.4-4.1-1.3c-1.3-0.9-2.4-2.2-3.2-4.1c-0.8-1.8-1.2-4.4-1.2-7.6
			c0-4.5,0.6-7.7,1.9-9.6C137,315.4,138.8,314.1,141.2,313.6z"/>
		<path class="st0" d="M144,362.6l-1,9c-1.9-0.5-3.5-1.3-4.9-2.4c-1.4-1.1-2.4-2.6-3.2-4.3c-0.8-1.8-1.1-4-1.1-6.7
			c0-2.6,0.2-4.8,0.7-6.5c0.5-1.7,1.3-3.2,2.4-4.5c1.1-1.3,2.4-2.2,3.8-2.9c1.5-0.7,3.4-1.1,5.8-1.1c2.5,0,4.6,0.4,6.3,1.3
			c1.2,0.6,2.3,1.5,3.3,2.6c1,1.1,1.7,2.2,2.2,3.4c0.8,1.8,1.1,4.2,1.1,7.1c0,4-0.7,7.1-2.2,9.2s-3.5,3.6-6.3,4.4l-1.2-8.9
			c1.1-0.3,1.8-0.8,2.4-1.5c0.5-0.7,0.8-1.7,0.8-3c0-1.6-0.6-2.8-1.7-3.8c-1.1-1-2.8-1.5-5.1-1.5c-2,0-3.6,0.5-4.6,1.4
			c-1,1-1.6,2.2-1.6,3.7c0,1.2,0.3,2.3,1,3.1C141.7,361.6,142.7,362.2,144,362.6z"/>
		<path class="st0" d="M168.4,375.1v9.4h-12.5c1.3,1.3,2.3,2.6,2.9,3.8c0.6,1.3,0.9,2.8,0.9,4.5c0,2.6-0.8,4.6-2.3,6.1
			c-1.6,1.5-4,2.2-7.2,2.2h-15.7v-9.5h13.5c1.5,0,2.6-0.3,3.3-0.9c0.6-0.6,1-1.4,1-2.4c0-1.1-0.4-2.1-1.3-2.8
			c-0.9-0.7-2.4-1.1-4.7-1.1h-11.8v-9.4H168.4z"/>
		<path class="st0" d="M169,420.8l3.3,17.2c0.7,3.7,0.4,6.7-1,8.9c-1.4,2.2-3.8,3.6-7,4.3c-3.4,0.6-6.2,0.1-8.5-1.5
			c-2.3-1.7-3.8-4.6-4.6-8.7l-1.1-5.6l-12.4,2.4l-2-10.4L169,420.8z M156.8,433.9l0.5,2.5c0.4,2,1,3.3,1.8,4
			c0.8,0.7,1.8,0.9,2.9,0.7c1-0.2,1.9-0.7,2.5-1.6c0.6-0.8,0.7-2.2,0.3-4.2l-0.6-2.9L156.8,433.9z"/>
		<path class="st0" d="M166.9,455.5l2.7,9.1l-23.6,6.9l-2.6-9.1L166.9,455.5z M175.9,452.9l2.7,9.1l-6.2,1.8l-2.7-9.1L175.9,452.9z"
			/>
		<path class="st0" d="M139.5,482.8l31.6-12.7l3.3,8.2l-3.4,1.4c1.9,0.6,3.3,1.2,4.1,2c1.2,1,2.1,2.3,2.7,3.8c1.2,3.1,1,5.9-0.7,8.5
			c-1.7,2.6-4.2,4.6-7.7,6c-3.8,1.5-7.1,1.8-9.8,0.8c-2.7-1-4.7-2.9-5.8-5.7c-0.5-1.3-0.8-2.7-0.8-4c0-1.3,0.3-2.6,0.8-3.8
			l-10.9,4.4L139.5,482.8z M163.1,483.5c-1.8,0.7-3,1.6-3.6,2.8c-0.6,1.1-0.6,2.2-0.2,3.4c0.4,1,1.2,1.7,2.3,2.1
			c1.1,0.4,2.7,0.1,4.7-0.7c1.9-0.7,3.1-1.6,3.6-2.7c0.6-1.1,0.7-2.1,0.2-3.1c-0.4-1.1-1.3-1.9-2.4-2.3
			C166.6,482.5,165,482.7,163.1,483.5z"/>
		<path class="st0" d="M184.3,529.9l-9.7-16.3c-1.2,0.9-2,1.8-2.3,2.8c-0.5,1.3-0.3,2.6,0.4,3.9c0.5,0.8,1.1,1.4,1.9,1.9
			c0.5,0.3,1.2,0.5,2.2,0.6l4,8.4c-2.9,0-5.3-0.5-7.2-1.7s-3.9-3.4-5.8-6.6c-1.7-2.8-2.6-5.2-2.7-7.3c-0.2-2.1,0.3-4.2,1.4-6.2
			c1.1-2.1,2.8-3.8,5.1-5.2c3.3-2,6.6-2.5,9.9-1.6c3.3,0.9,6.1,3.2,8.3,7c1.8,3,2.8,5.7,2.9,8c0.1,2.3-0.4,4.4-1.6,6.4
			c-1.2,2-3.2,3.8-6,5.4L184.3,529.9z M183.2,519.3c1.5-1.1,2.3-2.2,2.6-3.3c0.3-1.1,0.1-2.2-0.6-3.3c-0.8-1.3-1.9-2-3.4-2.2
			c-0.9-0.1-2.1,0.1-3.4,0.8L183.2,519.3z"/>
		<path class="st0" d="M184.7,535.8l6.8,6.5c-0.6,1-0.8,2-0.7,2.8c0.1,0.8,0.5,1.7,1.3,2.6c0.8,1,1.7,1.5,2.6,1.7
			c0.7,0.1,1.2,0,1.7-0.4c0.5-0.4,0.7-1.1,0.5-1.8c-0.1-0.6-0.8-1.8-1.9-3.7c-1.7-2.8-2.8-4.9-3.3-6.2c-0.5-1.3-0.6-2.6-0.3-4.1
			c0.3-1.4,1-2.6,2.1-3.6c1.2-1.1,2.6-1.6,4.1-1.7c1.5-0.1,3,0.3,4.5,1.2c1.5,0.9,3.2,2.3,5,4.4c1.9,2.2,3.2,4,3.8,5.3
			c0.6,1.3,0.8,2.7,0.7,4c-0.1,1.3-0.5,2.8-1.3,4.3l-6.6-6.2c0.4-0.7,0.6-1.4,0.5-2c-0.1-0.9-0.5-1.7-1.2-2.5
			c-0.7-0.8-1.4-1.3-2-1.4c-0.6-0.1-1.1,0-1.5,0.4c-0.5,0.4-0.6,0.9-0.4,1.6c0.2,0.7,0.9,1.9,2,3.6c1.8,2.6,3,4.7,3.5,6.3
			c0.5,1.6,0.6,3,0.3,4.4c-0.3,1.4-1.1,2.5-2.1,3.5c-1.1,0.9-2.4,1.5-4,1.8c-1.6,0.2-3.3-0.1-5.1-0.9c-1.8-0.9-3.8-2.5-5.9-4.9
			c-3-3.4-4.6-6.2-4.9-8.5C182.7,539.9,183.3,537.7,184.7,535.8z"/>
		<path class="st0" d="M233.7,567.2l-7.4-5.3c1.1-1.2,2.1-2,3.1-2.5c1-0.5,2.2-0.7,3.6-0.7c1,0,2.2,0.3,3.7,0.8
			c1.4,0.5,2.9,1.2,4.5,2.1c2.5,1.4,4.4,2.7,5.7,3.8c1.3,1.1,2.3,2.4,2.8,3.8c0.4,1,0.4,2.2,0.2,3.5c-0.2,1.3-0.6,2.5-1.2,3.5
			l-5.4,9.5c-0.6,1-1,1.8-1.1,2.5c-0.2,0.6-0.3,1.5-0.4,2.7l-7.7-4.4c0-0.7,0-1.3,0.1-1.6s0.2-0.8,0.5-1.5c-1.7,0.4-3.2,0.6-4.5,0.4
			c-1.8-0.2-3.6-0.9-5.6-2c-2.6-1.4-4.2-3.1-4.8-5.1c-0.7-1.9-0.5-3.8,0.5-5.5c0.9-1.6,2.2-2.7,3.7-3.2c1.5-0.5,3.8-0.3,6.6,0.6
			c3.4,1.1,5.7,1.8,6.7,2.1s2.2,0.5,3.5,0.7c0.6-1,0.8-1.8,0.6-2.5c-0.2-0.6-0.8-1.3-1.9-1.9c-1.3-0.8-2.5-1.1-3.4-1.1
			C235.3,566.1,234.5,566.5,233.7,567.2z M238.4,575.6c-1.4-0.2-2.7-0.5-4.1-0.9c-1.9-0.5-3.2-0.7-3.9-0.5c-0.7,0.2-1.2,0.6-1.5,1.1
			c-0.4,0.6-0.4,1.3-0.2,2c0.2,0.7,0.8,1.2,1.6,1.7c0.9,0.5,1.9,0.8,2.9,0.8c1,0,1.9-0.2,2.6-0.7s1.3-1.2,1.9-2.2L238.4,575.6z"/>
		<path class="st0" d="M257.3,570.7l8.4,2.5l-1.1,3.9c1.7-1.2,3.3-2,4.8-2.3c1.5-0.3,3.2-0.2,5,0.4c2.5,0.7,4.3,2,5.2,4
			c1,1.9,1,4.4,0.1,7.5l-4.4,15l-9.1-2.7l3.8-13c0.4-1.5,0.5-2.6,0.1-3.4c-0.4-0.8-1.1-1.3-2-1.6c-1.1-0.3-2.1-0.2-3,0.5
			c-0.9,0.6-1.7,2-2.3,4.2l-3.3,11.4l-9.1-2.6L257.3,570.7z"/>
		<path class="st0" d="M313.9,571.8l-3,33.9l-8.8-0.8l0.3-3.6c-1.4,1.4-2.6,2.4-3.7,2.8c-1.4,0.6-3,0.8-4.6,0.7
			c-3.3-0.3-5.8-1.8-7.3-4.5c-1.5-2.7-2.1-5.9-1.8-9.5c0.4-4.1,1.6-7.1,3.8-9.1c2.1-2,4.7-2.8,7.7-2.6c1.5,0.1,2.8,0.5,3.9,1.1
			c1.1,0.6,2.1,1.4,3,2.5l1-11.7L313.9,571.8z M302.6,592.5c0.2-1.9-0.1-3.4-0.8-4.4c-0.7-1-1.7-1.6-3-1.7c-1.1-0.1-2.1,0.3-2.9,1.1
			c-0.8,0.8-1.3,2.3-1.5,4.5c-0.2,2,0.1,3.5,0.8,4.5c0.7,1,1.6,1.6,2.7,1.7c1.2,0.1,2.2-0.3,3.1-1.1
			C301.9,596.1,302.4,594.6,302.6,592.5z"/>
		<path class="st0" d="M333.2,571.6l15.4-2.4c3-0.5,5.6-0.4,7.6,0.1c2,0.5,3.7,1.5,5.2,2.8c1.5,1.4,2.6,3,3.5,5
			c0.9,2,1.5,4.1,1.8,6.4c0.5,3.6,0.6,6.4,0,8.5c-0.5,2.1-1.4,3.9-2.6,5.5c-1.2,1.6-2.7,2.7-4.3,3.4c-2.2,1-4.2,1.6-6.1,1.9
			l-15.4,2.4L333.2,571.6z M344.8,577.7l2.8,18.4l2.5-0.4c2.2-0.3,3.7-0.8,4.5-1.4c0.8-0.6,1.4-1.6,1.8-2.9c0.3-1.3,0.3-3.3-0.1-6
			c-0.5-3.6-1.5-5.9-2.9-7c-1.4-1.1-3.4-1.5-6.1-1.1L344.8,577.7z"/>
		<path class="st0" d="M369.6,574.4l8.3-3l1.4,3.8c0.2-1.9,0.6-3.4,1.3-4.3c0.6-0.9,1.6-1.6,2.8-2.1c1.3-0.5,2.9-0.6,4.7-0.3
			l-0.5,7.3c-1.2-0.1-2.1,0-2.7,0.2c-1.2,0.4-1.9,1.2-2.2,2.4c-0.4,1.7,0,4.4,1.3,8.1l2.8,7.8l-8.9,3.2L369.6,574.4z"/>
		<path class="st0" d="M425.2,574.4l-7.5,4.6l-2.1-3.4c-0.3,2.1-0.8,3.8-1.6,5.1s-2,2.4-3.7,3.5c-2.2,1.4-4.4,1.8-6.4,1.2
			c-2.1-0.6-4-2.2-5.6-5l-8.2-13.4l8.1-5l7.1,11.6c0.8,1.3,1.6,2.1,2.5,2.4c0.8,0.3,1.7,0.1,2.6-0.4c1-0.6,1.5-1.4,1.7-2.6
			c0.2-1.1-0.3-2.6-1.5-4.5l-6.2-10.1l8-4.9L425.2,574.4z"/>
		<path class="st0" d="M416.8,551l5.9-6.6l2.7,2.4c-0.3-1.9-0.2-3.6,0.2-5c0.4-1.4,1.2-2.8,2.4-4.1c1.3-1.5,2.6-2.4,3.9-2.8
			c1.3-0.4,2.7-0.4,4.2,0c-0.2-2.2-0.1-3.9,0.3-5.2c0.4-1.3,1.2-2.6,2.4-3.9c1.8-2,3.7-3,5.9-3c2.2-0.1,4.5,1,7,3.3l11.5,10.3
			l-6.3,7l-10.4-9.4c-0.8-0.7-1.6-1.1-2.3-1.2c-1.1-0.1-1.9,0.2-2.5,0.9c-0.7,0.8-1,1.8-0.9,2.8c0.1,1,0.9,2.2,2.2,3.3l9.5,8.5
			l-6.3,7l-10.1-9.1c-0.8-0.7-1.4-1.2-1.8-1.3c-0.6-0.3-1.2-0.3-1.8-0.2c-0.6,0.1-1.1,0.4-1.6,0.9c-0.7,0.8-1,1.7-0.9,2.8
			c0.1,1.1,0.9,2.2,2.3,3.5l9.4,8.4l-6.3,7L416.8,551z"/>
		<path class="st0" d="M461.3,525.2l3.8-8.6c1.2,0.2,2.1,0.1,2.9-0.3s1.4-1.1,2-2.1c0.6-1.1,0.9-2.1,0.7-3c-0.1-0.7-0.4-1.1-0.9-1.4
			c-0.6-0.3-1.2-0.3-1.9,0.2c-0.5,0.3-1.4,1.3-2.8,3.1c-2.1,2.6-3.6,4.3-4.7,5.2c-1,0.9-2.3,1.4-3.7,1.6c-1.4,0.2-2.8,0-4.1-0.8
			c-1.4-0.8-2.4-1.9-3-3.3c-0.6-1.4-0.7-3-0.4-4.7c0.3-1.7,1.1-3.8,2.5-6.2c1.4-2.6,2.7-4.4,3.7-5.4s2.2-1.7,3.5-2.1
			c1.3-0.4,2.8-0.4,4.5-0.2l-3.6,8.3c-0.8-0.2-1.5-0.1-2.1,0.2c-0.8,0.4-1.4,1.1-2,2c-0.5,0.9-0.7,1.7-0.6,2.3
			c0.1,0.6,0.4,1,0.9,1.3c0.5,0.3,1.1,0.2,1.6-0.2c0.6-0.4,1.5-1.4,2.7-3.1c1.8-2.6,3.4-4.4,4.7-5.4c1.3-1,2.7-1.6,4.1-1.8
			c1.4-0.1,2.7,0.1,4,0.8c1.2,0.7,2.2,1.7,3,3.1c0.8,1.4,1,3.1,0.8,5.1c-0.2,2-1.1,4.4-2.6,7.2c-2.2,3.9-4.3,6.4-6.3,7.5
			C465.9,525.7,463.7,525.9,461.3,525.2z"/>
		<path class="st0" d="M451.9,462.2l1.7-5.8l5.6,1.6l-1.7,5.8L451.9,462.2z M454.7,452.8l1.7-5.9l5.6,1.6l-1.7,5.9L454.7,452.8z
			 M463.4,451.2l2.9-10.1l19.5,5.6c1.9,0.6,3.7,1.4,5.2,2.5c1.5,1.1,2.8,2.5,3.7,4.1c0.9,1.7,1.4,3.3,1.5,4.8c0.2,2.2-0.2,4.6-1,7.4
			c-0.5,1.6-1.1,3.3-1.8,5.1c-0.8,1.8-1.7,3.3-2.7,4.3c-1,1.1-2.3,2-3.8,2.6c-1.5,0.7-3,1-4.4,1.1c-2.3,0-4.2-0.2-5.8-0.7l-19.5-5.6
			l2.9-10.1l19.9,5.8c1.8,0.5,3.3,0.4,4.6-0.3c1.3-0.7,2.2-1.9,2.7-3.7c0.5-1.7,0.4-3.2-0.3-4.5c-0.7-1.3-2-2.2-3.8-2.7L463.4,451.2
			z"/>
		<path class="st0" d="M467.1,436.6l1.4-9.4l11.7,1.7c-0.8-1.1-1.4-2.2-1.7-3.5c-0.3-1.3-0.4-2.6-0.2-4c0.4-3,1.9-5.3,4.3-6.9
			c2.4-1.6,5.6-2.1,9.6-1.6c2.7,0.4,4.9,1.2,6.8,2.4c1.9,1.2,3.2,2.6,4,4.4c0.8,1.7,1,3.5,0.7,5.4c-0.2,1.6-0.8,3.1-1.7,4.3
			c-0.7,0.9-1.9,1.9-3.6,2.9l3.6,0.5l-1.3,8.7L467.1,436.6z M489.9,430.4c2.1,0.3,3.7,0.1,4.7-0.5c1.1-0.6,1.7-1.6,1.9-2.8
			c0.2-1.1-0.2-2.1-1-3c-0.8-0.9-2.3-1.5-4.5-1.8c-1.9-0.3-3.4-0.1-4.4,0.5c-1,0.6-1.6,1.4-1.8,2.5c-0.2,1.3,0.1,2.4,1,3.3
			C486.6,429.5,488,430.1,489.9,430.4z"/>
		<path class="st0" d="M494.5,379.7v18.9c1.5-0.2,2.6-0.6,3.4-1.2c1.1-0.9,1.6-2.1,1.6-3.6c0-0.9-0.2-1.8-0.7-2.6
			c-0.3-0.5-0.8-1.1-1.6-1.6l0.9-9.3c2.5,1.4,4.2,3.1,5.3,5.2c1.1,2,1.6,4.9,1.6,8.7c0,3.3-0.5,5.8-1.4,7.7
			c-0.9,1.9-2.4,3.4-4.4,4.7c-2,1.2-4.4,1.8-7.1,1.8c-3.9,0-7-1.2-9.3-3.7c-2.4-2.5-3.6-5.9-3.6-10.2c0-3.5,0.5-6.3,1.6-8.4
			c1.1-2,2.6-3.6,4.6-4.7c2-1.1,4.7-1.6,7.9-1.6H494.5z M490,389.3c-1.8,0.2-3.1,0.7-3.9,1.5c-0.8,0.8-1.2,1.8-1.2,3.1
			c0,1.5,0.6,2.7,1.8,3.6c0.7,0.6,1.8,0.9,3.3,1.1V389.3z"/>
		<path class="st0" d="M479.8,375.3v-8.8h4c-1.7-0.8-3-1.7-3.6-2.6c-0.7-0.9-1-2-1-3.4c0-1.4,0.4-2.9,1.3-4.6l6.7,2.9
			c-0.5,1.1-0.7,2-0.7,2.6c0,1.2,0.5,2.2,1.5,2.9c1.4,1,4.1,1.5,8.1,1.5h8.3v9.5H479.8z"/>
		<path class="st0" d="M470.5,352.4v-9.5h34v9.5H470.5z"/>
		<path class="st0" d="M470.5,336.5v-9.4h6.4v9.4H470.5z M479.8,336.5v-9.4h24.6v9.4H479.8z"/>
		<path class="st0" d="M479.8,321.1v-8.8h4c-1.6-1.3-2.8-2.6-3.5-4c-0.7-1.3-1.1-3-1.1-4.9c0-2.6,0.8-4.7,2.3-6.1
			c1.6-1.5,4-2.2,7.2-2.2h15.7v9.5h-13.5c-1.5,0-2.6,0.3-3.3,0.9c-0.6,0.6-1,1.4-1,2.4c0,1.1,0.4,2.1,1.3,2.8
			c0.9,0.7,2.4,1.1,4.7,1.1h11.8v9.4H479.8z"/>
		<path class="st0" d="M479.8,272.2v-8.8h23.3l1.1,0c1.5,0,3,0.3,4.4,1c1.4,0.7,2.5,1.5,3.4,2.6c0.9,1.1,1.5,2.5,1.9,4.2
			c0.4,1.7,0.6,3.6,0.6,5.8c0,4.9-0.7,8.3-2.2,10.2c-1.5,1.8-3.5,2.8-6,2.8c-0.3,0-0.7,0-1.3,0l1-9.2c0.8-0.2,1.4-0.6,1.8-1.1
			c0.5-0.7,0.7-1.6,0.7-2.6c0-1.4-0.4-2.4-1.1-3.1c-0.7-0.7-2-1-3.8-1h-3.7c1.1,0.9,1.9,1.9,2.4,2.8c0.8,1.5,1.2,3,1.2,4.7
			c0,3.3-1.4,6-4.3,8c-2,1.4-4.7,2.2-8.1,2.2c-3.8,0-6.8-0.9-8.8-2.8c-2-1.9-3-4.3-3-7.3c0-1.9,0.3-3.5,1-4.7
			c0.6-1.2,1.7-2.4,3.2-3.5H479.8z M491.8,281.1c1.8,0,3.1-0.4,4-1.1c0.9-0.8,1.3-1.8,1.3-3c0-1.2-0.4-2.2-1.3-3
			c-0.9-0.8-2.2-1.2-4-1.2c-1.8,0-3.2,0.4-4.1,1.3c-1,0.8-1.4,1.9-1.4,3.1c0,1.2,0.4,2.2,1.3,2.9
			C488.3,280.7,489.8,281.1,491.8,281.1z"/>
		<path class="st0" d="M494.5,230.3v18.9c1.5-0.2,2.6-0.6,3.4-1.2c1.1-0.9,1.6-2.1,1.6-3.6c0-0.9-0.2-1.8-0.7-2.6
			c-0.3-0.5-0.8-1.1-1.6-1.6l0.9-9.3c2.5,1.4,4.2,3.1,5.3,5.2c1.1,2,1.6,4.9,1.6,8.7c0,3.3-0.5,5.8-1.4,7.7
			c-0.9,1.9-2.4,3.4-4.4,4.7c-2,1.2-4.4,1.8-7.1,1.8c-3.9,0-7-1.2-9.3-3.7c-2.4-2.5-3.6-5.9-3.6-10.2c0-3.5,0.5-6.3,1.6-8.4
			c1.1-2,2.6-3.6,4.6-4.7c2-1.1,4.7-1.6,7.9-1.6H494.5z M490,239.9c-1.8,0.2-3.1,0.7-3.9,1.5c-0.8,0.8-1.2,1.8-1.2,3.1
			c0,1.5,0.6,2.7,1.8,3.6c0.7,0.6,1.8,0.9,3.3,1.1V239.9z"/>
		<path class="st0" d="M479.8,226v-8.8h4c-1.6-1.3-2.8-2.6-3.5-4c-0.7-1.3-1.1-3-1.1-4.9c0-2.6,0.8-4.7,2.3-6.1
			c1.6-1.5,4-2.2,7.2-2.2h15.7v9.5h-13.5c-1.5,0-2.6,0.3-3.3,0.9c-0.6,0.6-1,1.4-1,2.4c0,1.1,0.4,2.1,1.3,2.8
			c0.9,0.7,2.4,1.1,4.7,1.1h11.8v9.4H479.8z"/>
	</g>
</g>
<g id="Ebene_5">
	<path class="st1" d="M427,341c2.2-13.7,0.1-18.5-2.6-20.1c-3.1-1.8-7.1,0.6-14.2-1.8c-3.8-1.3-5.9-1.7-6.4-3.3
		c-0.4-1.2,0.1-2.9,1.2-3.5c2.5-1.5,8.4,2.9,7.9,4.5c-0.5,1.7-9.2,0.8-14.7-0.5c-9.2-2.1-15.6-6.5-27.9-15.2
		c-10.3-7.2-10.2-8.5-10.1-8.9c0.9-2,11.3-0.2,11.4,1.3c0,1.3-7.9,3.3-15.3,3.3c-5.8,0-13.2-2.8-27.9-8.2c-5.9-2.2-9.6-3.7-9.4-4.8
		c0.3-1.7,9.8-1,9.9-1.8c0-0.5-7.5,0.3-12.7-2.8c-7.6-4.5-9.5-16.5-9.1-24.6c1.4-24.8,27.3-37.9,22.9-45.2
		c-2.3-3.8-11.2-3.6-12.2-1.3c-1.1,2.4,7.6,5.1,10.7,12c8.5,18.8-29.2,55.6-53.5,79.3c-0.4,0.4-0.7,0.7-0.9,0.9"/>
</g>
<g id="Ebene_4">
	
		<rect x="354.1" y="354.3" transform="matrix(0.768 0.6404 -0.6404 0.768 324.1162 -141.9123)" class="st2" width="7.7" height="44.3"/>
	<path class="st3" d="M360.6,384.9c-0.9,1-2.7,0.9-4.3-0.2c-0.1-0.1-0.2-0.1-0.3-0.2l-5.6-4.7c-1.6-1.3-2.2-3.3-1.2-4.4
		c0.9-1.1,3-0.9,4.6,0.4l5.6,4.7c0.1,0.1,0.2,0.2,0.3,0.2C361,382,361.5,383.8,360.6,384.9z"/>
	<path class="st2" d="M379.5,362.2c-0.9,1-2.7,0.9-4.3-0.2c-0.1-0.1-0.2-0.1-0.3-0.2l-5.6-4.7c-1.6-1.3-2.2-3.3-1.2-4.4
		s3-0.9,4.6,0.4l5.6,4.7c0.1,0.1,0.2,0.2,0.3,0.2C380,359.3,380.4,361.1,379.5,362.2z"/>
	
		<rect x="377.1" y="343.4" transform="matrix(0.768 0.6404 -0.6404 0.768 312.3745 -162.0349)" class="st2" width="5.4" height="13.6"/>
	<path class="st2" d="M391.6,347.7c-0.9,1-2.7,0.9-4.3-0.2c-0.1-0.1-0.2-0.1-0.3-0.2l-5.6-4.7c-1.6-1.3-2.2-3.3-1.2-4.4
		c0.9-1.1,3-0.9,4.6,0.4l5.6,4.7c0.1,0.1,0.2,0.2,0.3,0.2C392,344.8,392.5,346.6,391.6,347.7z"/>
	
		<rect x="389.8" y="324.2" transform="matrix(0.768 0.6404 -0.6404 0.768 304.974 -174.7176)" class="st2" width="7.7" height="18.9"/>
	
		<rect x="403.7" y="308" transform="matrix(0.768 0.6404 -0.6404 0.768 298.154 -186.4055)" class="st3" width="5.4" height="20.7"/>
	
		<rect x="411.6" y="303.6" transform="matrix(0.768 0.6404 -0.6404 0.768 293.2905 -194.7404)" class="st2" width="7.7" height="7.7"/>
	<path class="st2" d="M425.3,307.3c-0.9,1-2.7,0.9-4.3-0.2c-0.1-0.1-0.2-0.1-0.3-0.2l-5.6-4.7c-1.6-1.3-2.2-3.3-1.2-4.4
		c0.9-1.1,3-0.9,4.6,0.4l5.6,4.7c0.1,0.1,0.2,0.2,0.3,0.2C425.7,304.4,426.2,306.2,425.3,307.3z"/>
	<rect x="395" y="326" transform="matrix(0.768 0.6404 -0.6404 0.768 302.1894 -179.4898)" class="st2" width="7.7" height="2.7"/>
	
		<rect x="393.3" y="328.1" transform="matrix(0.768 0.6404 -0.6404 0.768 303.1111 -177.9101)" class="st2" width="7.7" height="2.7"/>
	
		<rect x="391.6" y="330.2" transform="matrix(0.768 0.6404 -0.6404 0.768 304.0329 -176.3304)" class="st2" width="7.7" height="2.7"/>
	
		<rect x="389.8" y="332.3" transform="matrix(0.768 0.6404 -0.6404 0.768 304.974 -174.7176)" class="st2" width="7.7" height="2.7"/>
	
		<rect x="388.1" y="334.3" transform="matrix(0.768 0.6404 -0.6404 0.768 305.8958 -173.1379)" class="st2" width="7.7" height="2.7"/>
	
		<rect x="386.4" y="336.4" transform="matrix(0.768 0.6404 -0.6404 0.768 306.8175 -171.5582)" class="st2" width="7.7" height="2.7"/>
	<rect x="410" y="308" transform="matrix(0.768 0.6404 -0.6404 0.768 294.1434 -193.2787)" class="st2" width="7.7" height="2.7"/>
	
		<rect x="411.8" y="306" transform="matrix(0.768 0.6404 -0.6404 0.768 293.2216 -194.8584)" class="st2" width="7.7" height="2.7"/>
	
		<rect x="339.1" y="344.1" transform="matrix(0.9529 0.3033 -0.3033 0.9529 127.2419 -86.7648)" class="st2" width="7.7" height="44.3"/>
	<path class="st3" d="M348.6,373.1c-0.4,1.3-2.2,1.9-4,1.4c-0.1,0-0.2-0.1-0.3-0.1l-7-2.2c-2-0.6-3.2-2.3-2.8-3.6
		c0.4-1.4,2.4-2,4.4-1.3l7,2.2c0.1,0,0.2,0.1,0.3,0.1C347.9,370.2,349,371.8,348.6,373.1z"/>
	<path class="st2" d="M357.5,344.9c-0.4,1.3-2.2,1.9-4,1.4c-0.1,0-0.2-0.1-0.3-0.1l-7-2.2c-2-0.6-3.2-2.3-2.8-3.6
		c0.4-1.4,2.4-2,4.4-1.3l7,2.2c0.1,0,0.2,0.1,0.3,0.1C356.9,342.1,357.9,343.6,357.5,344.9z"/>
	
		<rect x="350.6" y="326.9" transform="matrix(0.9529 0.3033 -0.3033 0.9529 117.8451 -91.4468)" class="st2" width="5.4" height="13.6"/>
	<path class="st2" d="M363.2,326.9c-0.4,1.3-2.2,1.9-4,1.4c-0.1,0-0.2-0.1-0.3-0.1l-7-2.2c-2-0.6-3.2-2.3-2.8-3.6
		c0.4-1.4,2.4-2,4.4-1.3l7,2.2c0.1,0,0.2,0.1,0.3,0.1C362.6,324.1,363.7,325.6,363.2,326.9z"/>
	
		<rect x="356" y="303.7" transform="matrix(0.9529 0.3033 -0.3033 0.9529 111.9225 -94.3978)" class="st2" width="7.7" height="18.9"/>
	
		<rect x="363.2" y="283.8" transform="matrix(0.9529 0.3033 -0.3033 0.9529 106.4644 -97.1173)" class="st3" width="5.4" height="20.7"/>
	
		<rect x="366.4" y="276.9" transform="matrix(0.9529 0.3033 -0.3033 0.9529 102.5722 -99.0566)" class="st2" width="7.7" height="7.7"/>
	<path class="st2" d="M379.2,276.8c-0.4,1.3-2.2,1.9-4,1.4c-0.1,0-0.2-0.1-0.3-0.1l-7-2.2c-2-0.6-3.2-2.3-2.8-3.6
		c0.4-1.4,2.4-2,4.4-1.3l7,2.2c0.1,0,0.2,0.1,0.3,0.1C378.5,274,379.6,275.5,379.2,276.8z"/>
	
		<rect x="358.5" y="304" transform="matrix(0.9529 0.3033 -0.3033 0.9529 109.694 -95.5081)" class="st2" width="7.7" height="2.7"/>
	
		<rect x="357.7" y="306.6" transform="matrix(0.9529 0.3033 -0.3033 0.9529 110.4316 -95.1406)" class="st2" width="7.7" height="2.7"/>
	
		<rect x="356.9" y="309.2" transform="matrix(0.9529 0.3033 -0.3033 0.9529 111.1693 -94.773)" class="st2" width="7.7" height="2.7"/>
	
		<rect x="356" y="311.8" transform="matrix(0.9529 0.3033 -0.3033 0.9529 111.9225 -94.3978)" class="st2" width="7.7" height="2.7"/>
	
		<rect x="355.2" y="314.3" transform="matrix(0.9529 0.3033 -0.3033 0.9529 112.6601 -94.0302)" class="st2" width="7.7" height="2.7"/>
	
		<rect x="354.4" y="316.9" transform="matrix(0.9529 0.3033 -0.3033 0.9529 113.3978 -93.6627)" class="st2" width="7.7" height="2.7"/>
	
		<rect x="365.6" y="281.7" transform="matrix(0.9529 0.3033 -0.3033 0.9529 103.2548 -98.7165)" class="st2" width="7.7" height="2.7"/>
	
		<rect x="366.4" y="279.1" transform="matrix(0.9529 0.3033 -0.3033 0.9529 102.5171 -99.084)" class="st2" width="7.7" height="2.7"/>
	<rect x="320.6" y="332.2" class="st2" width="7.6" height="53.6"/>
	<rect x="321.7" y="318.5" class="st2" width="5.4" height="8.5"/>
	<rect x="319.8" y="292.3" class="st2" width="9" height="21"/>
	<path class="st2" d="M328.2,327L328.2,327c-0.1,0-0.2,0-0.3,0H328.2z"/>
	<path class="st2" d="M327.8,332.2c0.1,0,0.2,0,0.3,0v0H327.8z"/>
	<path class="st2" d="M331.6,329.6c0,1.4-1.5,2.5-3.4,2.6c-0.1,0-0.2,0-0.3,0h-7.2c-2.1,0-3.7-1.2-3.7-2.6s1.7-2.6,3.7-2.6h7.2
		c0.1,0,0.2,0,0.3,0C330.1,327.2,331.6,328.3,331.6,329.6z"/>
	<path class="st2" d="M331.4,315.9c0,1.3-1.5,2.5-3.4,2.6c-0.1,0-0.2,0-0.3,0h-7.2c-2.1,0-3.7-1.2-3.7-2.6c0-1.4,1.7-2.6,3.7-2.6
		h7.2c0.1,0,0.2,0,0.3,0C329.9,313.5,331.4,314.6,331.4,315.9z"/>
	<path class="st3" d="M331.7,368.5c0,1.4-1.5,2.5-3.4,2.6c-0.1,0-0.2,0-0.3,0h-7.2c-2.1,0-3.7-1.2-3.7-2.6c0-1.4,1.7-2.6,3.7-2.6
		h7.2c0.1,0,0.2,0,0.3,0C330.2,366.1,331.7,367.2,331.7,368.5z"/>
	<rect x="321.7" y="276.9" class="st3" width="5.4" height="15.4"/>
	<path class="st2" d="M331.7,274.3c0,1.4-1.5,2.5-3.4,2.6c-0.1,0-0.2,0-0.3,0h-7.2c-2.1,0-3.7-1.2-3.7-2.6c0-1.4,1.7-2.6,3.7-2.6
		h7.2c0.1,0,0.2,0,0.3,0C330.2,271.9,331.7,273,331.7,274.3z"/>
	<path class="st2" d="M331.7,255c0,1.3-1.5,2.5-3.4,2.6c-0.1,0-0.2,0-0.3,0h-7.2c-2.1,0-3.7-1.2-3.7-2.6s1.7-2.6,3.7-2.6h7.2
		c0.1,0,0.2,0,0.3,0C330.2,252.5,331.7,253.7,331.7,255z"/>
	<rect x="321.7" y="257.6" class="st2" width="5.4" height="14.2"/>
	<rect x="319.8" y="231.4" class="st2" width="9" height="21"/>
	<rect x="321.7" y="204.9" class="st3" width="5.4" height="26.5"/>
	<rect x="319.5" y="196.9" class="st2" width="9" height="8"/>
	<rect x="319.8" y="231.4" class="st3" width="9" height="21"/>
	<path class="st2" d="M331.4,194.3c0,1.3-1.5,2.5-3.4,2.6c-0.1,0-0.2,0-0.3,0h-7.2c-2.1,0-3.7-1.2-3.7-2.6c0-1.4,1.7-2.6,3.7-2.6
		h7.2c0.1,0,0.2,0,0.3,0C329.9,191.9,331.4,193,331.4,194.3z"/>
	<rect x="319.8" y="292.3" class="st2" width="9" height="2.7"/>
	<rect x="319.8" y="295" class="st2" width="9" height="2.7"/>
	<rect x="319.8" y="297.6" class="st2" width="9" height="2.7"/>
	<rect x="319.8" y="300.3" class="st2" width="9" height="2.7"/>
	<rect x="319.8" y="303" class="st2" width="9" height="2.7"/>
	<rect x="319.8" y="305.6" class="st2" width="9" height="2.7"/>
	<rect x="319.8" y="308.3" class="st2" width="9" height="2.7"/>
	<rect x="319.8" y="231.4" class="st2" width="9" height="2.7"/>
	<rect x="319.8" y="234" class="st2" width="9" height="2.7"/>
	<rect x="319.8" y="236.7" class="st2" width="9" height="2.7"/>
	<rect x="319.8" y="239.4" class="st2" width="9" height="2.7"/>
	<rect x="319.8" y="242" class="st2" width="9" height="2.7"/>
	<rect x="319.8" y="244.7" class="st2" width="9" height="2.7"/>
	<rect x="319.8" y="247.3" class="st2" width="9" height="2.7"/>
	<rect x="319.5" y="196.9" class="st2" width="9" height="2.7"/>
	<rect x="319.5" y="199.6" class="st2" width="9" height="2.7"/>
	<rect x="319.5" y="202.2" class="st2" width="9" height="2.7"/>
</g>
<g id="Ebene_2">
	<path class="st0" d="M249.5,301.8c-0.6-4.2,0.1-8,2.1-8.9c3-1.4,7.7,3.9,8.8,5.1c3.3,3.6,2.8,5.4,6.5,11c2.3,3.3,4.3,5.6,6.6,8
		c4.8,5.1,6.4,5.5,9.6,8.9c4.1,4.3,6,8.5,8.6,14c4.2,9,2.8,10.5,7.2,18.8c0.5,1,2.8,5.3,6.7,10.5c2.1,2.9,4,5.4,6.9,8.1
		c4.4,4.1,7.9,7.5,13.1,8.3c3.8,0.6,4.4-0.9,9.3,0c2.1,0.4,5.7,1.2,8.1,4.1c1.3,1.6,0.9,2.3,2,4.2c2.2,3.8,5.4,3.6,11,7.1
		c3.2,2,6.6,4.2,8.5,8c1.6,3.3,0.5,4.3,1.4,10.8c0.7,4.6,1.5,10.2,5.5,15.3c2,2.5,4.8,4.6,8.4,6.6c2.2,1.2,2.3,1.6,3.8,2.9
		c1.9,1.7,2.2,2.3,3.3,5.5c1.5,4.4,5.8,8.4,10.1,9.9c3.1,1.1,3.9,2,5,3.8c0.9,1.6,0.9,1.4,1.6,3.3c1,3,5.4,3,10.6,5.6
		c2.4,1.2,4.3,3.1,8.3,6.9c7,6.6,10.5,9.9,9.9,13.3c-0.6,3.4-4.6,5.7-7.4,6.5c-3.7,1-4.7-0.8-11.4-1.2c-3.3-0.2-3.3,0.2-12.1,0.2
		c-4.1,0-4.5-0.4-6.5-2c-1.3-1.1-2.4-2-3.5-3.2c-1.3-1.2-2.6-1.5-5-1.2c-3,0.4-4.2-0.2-6.1,0c-3.2,0.4-3.8,0.2-8-2.4
		c-4.8-2.9-6.1-3.1-8.1-3.3c-3.5-0.2-4,2.2-8.9,3.8c-0.3,0.1-4.3,0.6-8.9-0.9c-3.8-1.3-6.7-4.1-11.7-11.5c-2.1-3.1-4.7-7-7.4-12.6
		c-3.3-6.8-5.3-12.2-5.3-12.2c-1.2-3.3-1.4-4.4-2.7-6.5c-2.5-4.2-4-4-5.2-7.3c-1.1-3.1-0.9-6.3-0.7-8.7c0.3-3.2,0.8-3.1,0.5-4.5
		c-0.6-3.1-3.4-3.5-7.8-7.8c-1.2-1.2-3.7-3.7-5.9-7.5c-2-3.5-2.2-5.4-4.7-7.1c-1.5-1.1-2.2-0.9-4-2.3c-0.9-0.7-1.8-1.6-3.6-4.4
		c-1.7-2.5-2.3-3.7-3.7-6c-2.2-3.7-3.3-5.5-4.3-6.5c-2.3-2.2-3.3-1.6-8.5-5.3c-2.1-1.4-2.8-2.2-3.4-3.2c-1.3-2.3-0.3-3.6-1-5.8
		c-0.6-2.1-2.5-2.4-9.8-6.5c-5.2-3-7.6-5.1-7.9-5.3c-7-3.6-8.5-3.5-11-6c-2.8-2.9-1.9-4-4.5-6c-1.4-1.1-12.6-14.9-13.6-17.4
		c-1.1-2.7-4.7-2.1-8.3-5.2c-0.7-0.6-5.8-4.8-4.6-8.2c0.6-1.7,2.6-3,4.5-3c0.8,0,11.7-1.3,13.3-0.7c1.9,0.8,2.7,2.8,3.2,4
		c1.9,4.2,3,2.9,9.9,11.4c5.3,6.5,4.1,6.7,6.9,8.9c4,3.1,3.7,1.9,7.7,6.1c1.2,1.3,6,14.9,14.9,20.3c2.8,1.7,7,1.8,10-0.6
		c0.5-0.4,3.3-2.7,3-6.2c-0.2-1.8-1.4-3.2-2.7-4.6c-2.1-2.4-3.3-2.3-3.8-3.9c-0.5-1.8,1-2.8,1.2-5.1c0.4-3-1.7-5.5-3.5-7.6
		c-3.3-4.1-5.8-8.7-9.3-12.6C259.3,317.6,254.4,311.3,249.5,301.8z"/>
</g>
<g id="Ebene_6">
</g>
<g id="Bommel_x5F_1">
	<path class="st4" d="M326.8,300c0-0.2-0.1-0.7-0.2-1.4c0.1,0.4,0.2,0.7,0.2,1.1C326.8,299.8,326.8,299.9,326.8,300z"/>
	<path class="st5" d="M421.4,347c-0.1,0.5-0.6,2.1-2,3.4c-1.4,1.3-2.7,1.4-2.9,2.4c-0.1,0.8,0.4,1.7,1.1,2.1
		c1.1,0.6,1.8-0.3,3.2,0.2c1.3,0.5,1.2,1.5,2.3,1.7c1.1,0.2,1.6-0.8,2.5-0.4c0.9,0.3,0.8,1.4,1.7,1.6c1,0.2,1.6-1,2.5-0.8
		c0.7,0.2,0.7,1,1.5,1.2c0.7,0.2,1.5-0.3,1.8-0.6c2.3-1.7,2-7,1.9-8c-0.2-3.4-0.4-6.6-3-9.1c-0.5-0.5-2.5-2.5-5.6-2.5
		c-0.2,0-4.1,0.1-5.3,2.4C420.2,342.6,422.2,344,421.4,347z"/>
</g>
<g id="Ebene_7">
	<path class="st1" d="M274.1,300.2c0.2-0.2,0.5-0.5,0.9-0.9c10.1-9.8,22.4-21.9,32.9-34c14.8-17.1,25.7-34.3,20.7-45.3
		c-0.4-0.8-0.8-1.6-1.4-2.3c-3.4-4.8-9.1-7.1-9.4-9.1"/>
	<path class="st1" d="M319.9,283.1c-0.5,0.2-0.8,0.4-0.9,0.7c-0.2,1.1,3.5,2.6,9.4,4.8c14.6,5.5,22.1,8.2,27.9,8.2
		c2.5,0,5.1-0.2,7.5-0.6c2-0.3,3.8-0.7,5.2-1.1c0.1,0,0.1,0,0.2-0.1c1.5-0.5,2.5-1,2.5-1.5c0-0.4-0.7-0.8-1.6-1.1"/>
	<path class="st1" d="M427,341c2.2-13.7,0.1-18.5-2.6-20.1c-3.1-1.8-7.1,0.6-14.2-1.8c-2-0.7-3.5-1.1-4.6-1.6
		c2.3,0.2,4.5,0.3,5.8,0.1"/>
	<path class="st1" d="M405.1,312.2c0,0-0.1,0-0.1,0.1c-1,0.6-1.5,2.2-1.1,3.5c0.2,0.8,0.8,1.3,1.8,1.7c-2.5-0.3-5.2-0.7-7.4-1.2
		c-9.2-2.1-15.6-6.5-27.9-15.2c-2.9-2.1-5-3.7-6.5-4.9c-3.7-3-3.7-3.7-3.5-4c0.3-0.6,1.5-0.9,3.1-0.9"/>
	<path class="st1" d="M329.5,208.6c0.2,0.2,0.4,0.5,0.6,0.7c1.3,2.2-0.1,4.9-2.9,8.4c-6.2,7.9-19.1,19.5-20.1,36.8
		c-0.2,3.2,0,7.1,0.8,10.8c1.2,5.6,3.7,11.1,8.3,13.7c5.2,3,12.7,2.3,12.7,2.8c0,0.2-0.6,0.3-1.4,0.4"/>
	<path class="st6" d="M369.1,295l0,0.1l-0.2-0.1C369,295,369.1,295,369.1,295z"/>
	<path d="M405.9,313.7c0,0-0.7,1.2-0.2,1.5c0.5,0.3,0.7-0.8,0.7-0.8l-0.2-0.8H405.9z"/>
	<path class="st7" d="M409.9,317.3c0,0-2.5-0.7-3.3-1.4c-0.8-0.7-0.5-0.5-0.5-0.5l3.9-1l1.4,0.1l0.1,0.7L409.9,317.3z"/>
	<path d="M411.6,317.4"/>
	<line class="st2" x1="412.8" y1="314.8" x2="410.4" y2="317.8"/>
	<path class="st4" d="M408.9,317.8c0.9,0.3,2.2,0.5,3.6,0.1c0.1-0.1,0.3-0.1,0.4-0.2"/>
</g>
<g id="Ebene_9">
	<path class="st2" d="M429,341.1c0.5-2.5,0.8-5.4,0.8-8.8c0-3.5,0-5.2-0.4-7c-0.4-1.7-0.9-3.3-2.4-4.8c-1.7-1.7-3.8-2.1-4.6-2.3
		c-1.1-0.2-1.5-0.1-3.6-0.1c-3.1,0-5-0.3-8.8-0.9c-0.9-0.1-2.2-0.4-3.3-1.4c-0.5-0.5-1-0.8-1.1-1.4c-0.1-0.5,0.1-1.1,0.5-1.2
		c0.3,0,0.6,0.3,0.6,0.4"/>
	<path class="st2" d="M425.2,340.6c0.1-1.4,0.5-5.6,0.8-10.1c0-0.2,0.1-1.9-0.3-4.1c-0.3-1.6-0.6-2.2-1-2.7c-0.2-0.3-0.9-1.1-2-1.5
		c-1-0.3-1.7-0.1-2.7,0c-1.3,0.2-2.4,0.1-4.6-0.1c-1.1-0.1-2.9-0.3-5.1-0.9c-2-0.5-3.3-0.9-4.8-1.9c-1-0.7-3.6-2.3-3.6-4.6
		c0-0.7,0.2-1.3,0.3-1.5c0.1-0.4,0.6-1.6,1.8-2.4c1.2-0.8,2.5-0.8,3-0.7c0.8,0.1,1.5,0.3,1.9,0.5"/>
	<path class="st8" d="M414,314.4c0.2,0.3,0.5,0.7,0.7,1.3c0.1,0.3,0.2,0.6,0.1,1c0,0.3-0.1,0.6-0.2,0.7c0,0.1,0,0.2-0.1,0.4
		c-0.1,0.1-0.2,0.2-0.2,0.2"/>
	<path class="st2" d="M401.7,314.9c-0.7-0.1-1.7-0.3-3-0.6c-2.2-0.5-6.4-1.6-12.3-4.8c-2.4-1.3-5.5-3.5-11.6-7.7
		c0,0-3.5-2.3-6.6-4.6c-1.4-1-1.7-1.3-2.9-2.2c-0.4-0.3-0.8-0.7-1.3-1c-0.2-0.1-0.6-0.4-0.8-0.8c-0.1-0.2-0.2-0.4-0.2-0.4
		c0,0,0-0.2,0-0.4c0-0.6,0.4-1.6,0.5-1.6c0.1,0,0,0.9,0,1.3c0,0.1,0,0.3,0,0.3c0,0.2-0.1,0.4-0.1,0.5"/>
	<path class="st2" d="M405.4,319.4c-1.2-0.1-2.9-0.3-4.7-0.6c-1.5-0.3-4.3-0.8-7.6-1.9c-3.6-1.2-6.1-2.6-8.6-4
		c-0.7-0.4-2.4-1.4-8.2-5.3c-3.2-2.2-5.7-3.9-7.1-4.9c-3.3-2.3-1.1-0.8-4.9-3.6c-1.6-1.1-2.9-2.5-4.4-3.7c-0.4-0.3-1.1-0.8-1.5-1.8
		c-0.1-0.3-0.6-1.5-0.1-2.5c0.4-0.8,1.3-1.2,2-1.4c1.8-0.7,3.5-0.4,4.5-0.1"/>
	<path class="st2" d="M369.8,290.2c0.5,0.1,2.3,0.7,3.2,1.7c0.2,0.2,0.3,0.5,0.4,0.5c0.4,0.8,0.1,1.7,0.1,1.9
		c-0.3,1-1.2,1.5-1.9,1.9c-1.2,0.7-2.4,0.9-3.3,1"/>
	<path class="st2" d="M369.8,292.4c-0.7,0.3-1.4,0.7-2.2,1c-1.2,0.4-2.3,0.7-3.2,0.8"/>
	<path class="st2" d="M327.7,209.5c0.3,0.3,0.6,0.7,0.7,1.2c0.3,1.2-0.5,2.2-0.9,2.9c-2.3,3.3-3.5,5-3.9,5.4
		c-1.4,1.5-2.8,3.2-5.7,6.7c-2.3,2.7-4,4.8-5.8,7.8c-1.9,3-3,5.5-3.4,6.4c-1.1,2.4-3.1,7.2-3.6,13.6c-0.2,2.7-0.3,6.6,0.6,11.2"/>
	<path class="st2" d="M327.8,205.3c0.5,0.2,1.4,0.5,2.2,1.2c0.3,0.2,1.8,1.4,2.3,3.3c0.6,2.1-0.4,4.1-1.6,6.3c-0.4,0.7-1,1.7-4,5.3
		c-2.4,2.8-3,3.5-4.9,5.7c-1.1,1.3-2.7,3.2-4.3,5.6c-1.4,2-3.5,5-5.3,9.2c-1,2.3-2.6,6.1-3.1,11.3c-0.3,3.1-0.2,5.7,0,7.6"/>
	<path class="st2" d="M327.7,284.3c0.3,0,1.7,0,2.6-1c0.2-0.2,0.6-0.7,0.6-1.4c0-0.9-0.7-1.4-0.8-1.5c-0.4-0.4-0.9-0.4-1.7-0.5
		c-1.1-0.1-1.7-0.2-2.8-0.2c-1.4,0-2.5-0.3-4.1-0.7c-1.6-0.4-3.4-0.8-5.1-2c-2-1.4-3-3.2-4.1-5.4c-0.7-1.3-1.5-3.2-2.1-5.7"/>
	<path class="st2" d="M327.9,283.6c-0.8,0-1.9,0-3.2-0.2c-2.4-0.2-4.6-0.4-7.2-1.4c-0.9-0.4-2.7-1.1-4.6-2.7
		c-2.2-1.8-3.3-3.8-4.2-5.4c-1-1.7-1.5-3.3-1.9-4.4"/>
	<path class="st2" d="M317.7,282.1c-0.2,0.2-0.6,0.7-0.7,1.4c-0.2,1.4,1,2.4,1.5,2.9c0.6,0.6,1.2,0.8,2.1,1.2c2.7,1.2,5,2,5.5,2.1
		c1.7,0.6,3.1,1.1,3.6,1.2c3.4,1.2,4.8,2,7.3,3c3.7,1.5,6.6,2.3,9,3c4.4,1.2,6.9,1.9,10.3,2c2.9,0.1,5.2-0.3,6.8-0.6"/>
	<path class="st2" d="M359.1,294.7c-1.2,0.1-2.6,0.1-4.1,0c-2.3-0.2-4-0.6-5-0.8c-4-1-7.8-2.4-11.4-3.7c-7.5-2.7-9.3-3.3-13-4.8
		c-1.1-0.5-2.2-1-3.3-1.5c-0.1-0.1-0.5-0.2-1-0.6c-0.1-0.1-0.2-0.2-0.4-0.4c-0.3-0.2-0.6,0-0.7-0.2c0,0,0-0.1,0-0.1"/>
	<path class="st2" d="M318.9,204.9c-0.5,0.2-2.3,0.8-2.9,2.2c-0.1,0.3-0.2,0.6-0.2,0.6c-0.2,1.2,0.3,2.1,0.5,2.6c0.5,0.8,1,1.2,2,2
		c1.7,1.3,2.5,1.9,3.3,2.6c0.7,0.6,1.8,1.5,2.9,2.8"/>
	<path class="st2" d="M326.9,221.3c0.2,0.6,0.6,1.5,0.8,2.6c0.2,1.1,0.4,2.8-0.2,5.7c-0.1,0.7-0.6,3.1-2.1,6.8
		c-1.3,3.1-2.6,5.3-3.7,7.2c-1.4,2.5-2.6,4.2-4.3,6.6c-1.1,1.5-2.7,3.8-4.9,6.7c-1.7,2.1-3.6,4.4-7.5,8.9c-2.1,2.4-3.2,3.6-4.2,4.8
		c-3.1,3.5-7,7.5-14.6,15.1c-4.4,4.4-7.1,7.1-10.1,10c-1.3,1.3-2.5,2.4-3.3,3.1"/>
	<path class="st2" d="M275.5,301.6c5.8-5.6,10.5-10.3,14-13.8c7.1-7.1,9.3-9.3,10.7-10.8c6-6.3,9.9-10.9,11-12.3
		c2.6-3.1,4.9-5.9,7.8-9.9c4.2-5.8,6.4-9.8,7-10.8c2.7-5,3.8-8,4.3-9.7c1.2-3.7,1.4-6,1.4-7.5c0.1-3.1-0.5-5.1-0.7-5.7
		c-0.4-1.4-1-2.5-1.4-3.3"/>
	<path class="st2" d="M327,214.2c-0.9-0.8-1.7-1.5-2.2-1.9c-2.2-1.8-3.2-2.7-3.7-2.9c-0.2-0.1-0.9-0.5-0.9-0.7c0,0,0-0.1,0.4-0.1
		c0.3-0.1,0.6-0.1,0.8-0.1"/>
</g>
<g id="Bommel_x5F_2">
	
		<rect x="264.1" y="281.5" transform="matrix(0.6791 0.734 -0.734 0.6791 306.531 -110.1081)" class="st9" width="30.1" height="28.1"/>
	<path class="st5" d="M284.9,288.9c-1.1,6.2-1.7,9.3-1.5,11.4c0.2,3.2,1,9,3,9.4c0.5,0.1,1.2-0.1,1.8-0.6c0.9-0.8,0.5-1.7,1.2-2.3
		c0.9-0.7,1.8,0.1,2.8-0.6c1-0.7,0.6-1.6,1.4-2c1.1-0.5,1.8,0.5,2.6,0c0.6-0.4,0.7-1.2,1.4-1.7c0.5-0.4,1.1,0.2,1.9-0.1
		c0.8-0.2,1.5-1,1.6-1.7c0.3-1.6-2.5-2.3-5.2-5.5c-1.2-1.5-3.1-3.8-3.3-6.9c-0.1-1.7,0.4-2.7-0.2-4.4c-0.2-0.5-0.9-2.3-2.3-2.6
		c-1-0.2-1.9,0.4-2.3,0.6C286,283.3,285.5,285.9,284.9,288.9z"/>
	
		<rect x="289.9" y="280.9" transform="matrix(0.7071 0.7071 -0.7071 0.7071 285.5352 -123.0411)" class="st10" width="2.7" height="4.5"/>
	<path class="st2" d="M287.3,288.6c-0.9,4.6-1,9.8,1.2,14.8c0.1,0.3,0.3,0.6,0.4,0.9"/>
	<path class="st2" d="M290,296.7c0,0.7,0.3,3.9,2.7,5.6c0.3,0.2,0.8,0.5,1.3,0.7"/>
	<path class="st2" d="M290.3,286.3c0,1.4,0.2,11.4,6,14c0.5,0.2,1,0.4,1.5,0.5"/>
	<path class="st2" d="M424,342.7c1.3,4.1,0.7,8.1-1.7,10c-0.5,0.4-1.3,0.8-2.4,1.1"/>
	<path class="st2" d="M425.2,355.2c0.2-0.1,2.9-1.8,2.8-4.5c0-0.4-0.1-1-0.4-1.6"/>
	<path class="st2" d="M430.1,343c0.8,1.7,2.2,5.4,1.2,9.5c-0.2,0.8-0.5,1.5-0.7,2.1"/>
</g>
<g id="Baden">
	<path class="st3" d="M326.1,451.9c-10.3-1.9-20.1,4.8-30.8,12.3c-4.6,3.2-6.9,4.8-6.5,5.9c1.2,3.2,20.3,1.4,35.5-5
		c4.4-1.8,11-4.7,10.7-7.9C334.7,454.6,329.8,452.6,326.1,451.9z"/>
	<path class="st11" d="M371.4,462.2v54.6c0,2.3-0.2,4.5-0.6,6.6c-1.1,7.4-4.2,14.2-8.8,19.5c-6.1,7.4-15,12-24.8,12
		c-18.9,0-34.2-17.1-34.2-38.1v-54.6H371.4z"/>
	<path class="st12" d="M370.8,523.5c-1.1,7.4-4.2,14.2-8.8,19.5l-55.1-59.6l-3.8-4.2v-17h11.1l8.7,9.4L370.8,523.5z"/>
	<path class="st3" d="M371.4,462.2v28.3c-2.3,0.1-4.7-0.7-6.4-2.1c-0.8-0.7-1.4-1.6-3.8-7.6c-2.7-7-2.4-7.5-3.5-8.4
		c-4-3.3-13.2-1.4-15.5,3c-0.9,1.8-0.3,3.6-1.9,4.6c-1.4,0.9-3.8,0.6-5.1-0.6c-1.4-1.2-1.1-2.5-1.9-4c-1.5-2.7-6-4.1-10.3-3.7
		c-1.6,0.1-3.1,0.4-4.6,1c-4.6,1.9-4.7,5-8.7,8.7c-0.8,0.8-1.8,1.5-2.7,2.1c-1.2,0.8-2.5,1.6-3.8,2.1v-23.3H371.4z"/>
	<path class="st3" d="M337.6,454.8c-0.3,1-0.6,2.2-1.1,3.1c-0.4,0.8-1,1.5-1.8,1.7c-0.9,0.2-1.8-0.3-2-0.5
		c-4-2.3-18.5,2.4-36.6,12.1c-0.4,0.2-1.7,0.9-3.4,1c-0.1,0-0.2,0-0.3,0c-3.4,0-7.1-2.2-8.9-5.3c-0.6-1-1-2-1.2-3.1
		c-0.1-0.7-0.1-1.6,0.3-3.5c0.5-2.3,3-11.6,11.5-15.8c1.2-0.6,2.6-1.1,8.1-2c21.4-3.6,30.7-0.4,33.8,2.2c0.3,0.3,1,0.9,1.6,2
		c0.5,0.9,0.8,1.8,0.9,2.7l0,0C338.6,451.3,338,453.3,337.6,454.8z"/>
	<path class="st12" d="M337.6,454.8c-0.3,1-0.6,2.2-1.1,3.1c-1.3-0.6-3.7-1.6-6.5-2.4c-2.3-0.6-5.5-0.7-20.9,6
		c-8.5,3.6-12.7,5.5-14.2,7.2c-0.9,1-1.7,2.2-2.6,3.4c-3.4,0-7.1-2.2-8.9-5.3c0.4-0.5,0.8-1,1.2-1.5c3.3-3.9,6.1-7.1,11.1-10.3
		c5.2-3.3,9.6-4.6,14.5-5.9c6.3-1.7,12.2-3.4,19.8-2.4c0.8,0.1,4.2,0.6,8.3,2.4l0,0C338.6,451.3,338,453.3,337.6,454.8z"/>
	<path class="st13" d="M340.2,449.3c3.2,0.5,7-1,10.8-2.5c0.3-0.1,1-0.4,1.6,0.1c0.8,0.7,0.8,2.6,0.8,3.3c0.1,3.7,1.9,7.2,4.8,13.1
		c2.6,5.2,4.6,7.1,5.9,8c0.2,0.2,0.4,0.3,0.6,0.4c-1.1,0.2-2.8,0.3-4.5-0.6c-0.3-0.2-0.6-0.3-0.8-0.5c0.1,1,0.1,2.8-0.6,4.4
		c-0.1,0.3-0.2,0.5-0.4,0.7c-1.6-8-3.2-11.8-4.4-13.8c-0.2-0.3-0.7-1.1-1.1-2.2c-0.7-1.7-1.9-4.7-1.4-7.6c0.1-0.5,0.2-0.9,0-1.3
		c-0.3-0.7-1.5-0.4-2.6-0.1c0,0-4.4,1-8.5,0.5c-0.5-0.1-0.8-0.1-1.1-0.2c-0.1-0.1-0.7-0.8-0.6-1.6c0-0.1,0-0.3,0.1-0.5
		c0.1,0,0.3,0.1,0.5,0.1C339.2,449.1,339.7,449.2,340.2,449.3z"/>
	<path class="st13" d="M339.5,449.1c0.1,1.5,0.3,1.8,0.2,2.8c0,0.6,0,0.9-0.2,1.1c-0.4,0.4-1.3,0.1-1.8-0.5c-0.7-1-0.6-2.5-0.3-3.4
		c0.1-0.3,0.3-0.9,0.7-1.2c0.3-0.2,0.8-0.3,1.1,0C339.4,448.2,339.4,448.4,339.5,449.1z"/>
	<path class="st13" d="M339.2,450.3c1.5-2,4.7,2.1,8.2,0.3c0.5-0.2,0.9-0.5,1.1-0.3c0.7,0.6,0.3,3.3,0,7.6c-0.1,0.8-0.1,2.8,0.1,5
		c0.5,5.2,1.8,10.5,2.3,11.6c0.2,0.5,0.8,1.9,0.8,3.8c0,0.5-0.1,0.9-0.1,1.2c-1.5-1.2-2.1-2.5-2.3-3.5c-0.1-0.6-0.2-1.1-0.3-1.1
		c-0.2,0,0,2-0.9,4.1c-0.3,0.6-0.4,1-0.6,1c-0.6-0.1-0.4-4.5-1.2-10.6c-0.6-4.4-0.4-6.9-0.4-9.6c-0.1-4.4,1.5-5.4,0.6-6.7
		c-0.2-0.3-0.6-0.4-1.4-0.5c-1.1-0.2-1.7,0-2.9,0c-1.5,0.1-3.2,0.1-3.4-0.8C338.7,451.4,338.9,450.7,339.2,450.3z"/>
	<path class="st13" d="M339.2,450.3c1.5-2,4.7,2.1,8.2,0.3c0.5-0.2,0.9-0.5,1.1-0.3c0.7,0.6,0.3,3.3,0,7.6c-0.1,0.8-0.1,2.8,0.1,5
		c0.5,5.2,1.8,10.5,2.3,11.6c0.2,0.5,0.8,1.9,0.8,3.8c0,0.5-0.1,0.9-0.1,1.2c-1.5-1.2-2.1-2.5-2.3-3.5c-0.1-0.6-0.2-1.1-0.3-1.1
		c-0.2,0,0,2-0.9,4.1c-0.3,0.6-0.4,1-0.6,1c-0.6-0.1-0.4-4.5-1.2-10.6c-0.6-4.4-0.4-6.9-0.4-9.6c-0.1-4.4,1.5-5.4,0.6-6.7
		c-0.2-0.3-0.6-0.4-1.4-0.5c-1.1-0.2-1.7,0-2.9,0c-1.5,0.1-3.2,0.1-3.4-0.8C338.7,451.4,338.9,450.7,339.2,450.3z"/>
</g>
<g id="Notenschlüssel">
	
		<ellipse transform="matrix(0.9912 -0.1324 0.1324 0.9912 -53.2248 38.1373)" class="st11" cx="260.2" cy="419.3" rx="11.2" ry="5.2"/>
	
		<rect x="248.9" y="413.9" transform="matrix(0.9912 -0.1324 0.1324 0.9912 -52.874 38.0665)" class="st14" width="21.7" height="5.4"/>
	
		<ellipse transform="matrix(0.9912 -0.1324 0.1324 0.9912 -52.6542 38.0221)" class="st11" cx="259.6" cy="414.9" rx="11.2" ry="5.2"/>
	<path class="st11" d="M280.3,273.3c-0.9-6.9-1.1-17.4-7.4-20.3c-2.5-0.6-6.2,2.1-8,3.4c-13.8,9.8-12.5,34.8-12.3,39.1
		c0.1,1,3.3,92.9,4.6,115.9c0.1,1.4-2.8,2.9-2.8,3.8c0.1,1.2,3.1,1.4,3.2,1.4c2.2,0,3.2,0,4.4-0.5c1.3-0.5,2.7-0.5,2.7-1.6
		c0-0.6-2.7-2-2.7-2.9c-0.2-21.5-4.3-121.8-4.3-122.7c0-8,0-14.1,3.8-18.3c1.5-1.7,3.1-2.5,4-2.9c0.7-0.3,4.7-1.9,7.4,0
		c1.7,1.2,2.1,3.2,2.5,5.1c1,5-0.5,9.3-1.3,11.6c-1.8,5-4.3,12-11.2,19.2c-4.8,5.1-6,4.3-12.7,10.5c-4.7,4.3-7.5,7.9-11.8,13.4
		c-9.7,12.4-14.6,18.5-16.8,25.7c-1.3,4.2-3.8,12.5-0.7,22.1c3.5,11.1,12.2,16.9,15.2,18.8c2,1.3,7.1,4.3,14.3,5.6
		c11,2,19.5-1.3,21.2-2c3.6-1.5,11.6-4.7,16.5-13.2c4.6-7.8,5.6-18.3,1.1-27.5c-1.1-2.2-5.8-11.2-16.5-14.5
		c-13.3-4.2-24.1,3.9-25.5,4.9c-2.2,1.7-7.7,6-9.6,13.9c-0.4,1.8-2.8,12.5,4.5,20.1c5.2,5.5,12.9,6.7,13.2,6
		c0.2-0.4-2.5-1.3-5.1-4.2c-0.8-0.9-5.8-6.4-4.7-13.9c1.1-7.3,7.2-11,8.5-11.8c8.3-5.1,17.2-1.6,17.7-1.3c8.1,3.4,10.6,11.1,11,12.3
		c2.9,9.5-2.6,17.3-3.4,18.3c-7.9,10.8-23.2,9-25.9,8.7c-2.9-0.3-16.5-1.9-22.6-13.2c-4.7-8.7-1.9-17.9-1.1-20.6
		c1.8-5.9,4.9-9.7,9.4-14.8c15.3-17.2,17.7-17,24.6-25.7c4.4-5.5,13.2-16.8,15.6-32.9C280.2,282.1,281.2,280.2,280.3,273.3z"/>
	<line class="st11" x1="248.4" y1="416.4" x2="249" y2="420.8"/>
	<line class="st11" x1="270.7" y1="413.4" x2="271.3" y2="417.8"/>
	<polygon class="st14" points="256.9,395.2 261,395 261.2,401.5 257.2,402 	"/>
	<polygon class="st14" points="255,342.3 259.1,341.1 259.8,359.9 255.5,360.4 	"/>
	<polygon class="st14" points="253.7,309 257.8,307 258.6,330.7 254.5,334.2 	"/>
	<circle class="st2" cx="255.9" cy="315.3" r="1.3"/>
	<circle class="st2" cx="257.3" cy="345.2" r="1.3"/>
	<circle class="st2" cx="257.4" cy="358.1" r="1.3"/>
	<circle class="st2" cx="258.2" cy="371.7" r="1.3"/>
	<circle class="st2" cx="258.6" cy="384" r="1.3"/>
	<circle class="st2" cx="256.6" cy="330.3" r="1.3"/>
</g>
<g id="Mundstück">
	<rect x="267.5" y="236.7" class="st3" width="2.7" height="29.6"/>
	<rect x="266.6" y="282.8" class="st3" width="5" height="3.5"/>
	<rect x="266.6" y="281.7" class="st2" width="5" height="32.3"/>
	<path class="st3" d="M270.6,283.3h-3.1c-1.7,0-3.1-1.4-3.1-3.1v-11.6c0-1.7,1.4-3.1,3.1-3.1h3.1c1.7,0,3.1,1.4,3.1,3.1v11.6
		C273.7,281.9,272.3,283.3,270.6,283.3z"/>
	<rect x="266.6" y="286.3" class="st3" width="5" height="3.5"/>
	<rect x="266.6" y="289.9" class="st3" width="5" height="3.5"/>
	<path class="st14" d="M264.7,302.8c2.7-3.1,7-8.2,8.9-14.9c0.3-1,0.4-1.7,0.6-1.7c0.6,0,0.5,8.2,0.3,15.1
		c-2.1,5.6-5.3,11.8-10.1,17.8c-0.8,0.9-1.5,1.8-2.3,2.7c0.5-5.2,1-10.5,1.5-15.7c-0.1-0.5-0.3-1.1-0.4-1.6
		C263.9,303.8,264.4,303.2,264.7,302.8z"/>
</g>
<g id="Hutdtück">
	<path class="st15" d="M299.8,439.8L299.8,439.8l-6.2,9.6c-0.1,0-0.2,0.1-0.2,0.1c-0.1,0-0.2,0.1-0.2,0.1l-10.6-4.4
		c-0.1-2.9,2.9-6.1,7.2-7.4C293.9,436.5,298.1,437.4,299.8,439.8z"/>
	<path class="st15" d="M284.3,443.6c2.6,1.2,5.2,2.3,7.8,3.5"/>
	<path class="st15" d="M296.7,440.3c-0.9,1.8-1.7,3.7-2.6,5.5"/>
	<path class="st15" d="M292,439.1c0.1,1.9,0.1,3.9,0.2,5.8"/>
	<path class="st15" d="M286.7,440.5c1.3,1.2,2.6,2.3,3.9,3.5"/>
	
		<ellipse transform="matrix(0.9544 -0.2985 0.2985 0.9544 -121.0038 108.1428)" class="st3" cx="293.5" cy="450.2" rx="3.5" ry="3.5"/>
	
		<rect x="292.2" y="448.8" transform="matrix(0.9199 0.3922 -0.3922 0.9199 200.1076 -79.0514)" class="st16" width="2.7" height="2.7"/>
</g>
<g id="Lange_dinger_abden_logo">
	<path class="st16" d="M329.1,527.9c0,3.1-2.5,5.5-5.5,5.5s-5.5-2.5-5.5-5.5l0-0.7l2.9-47h5.3l2.9,47L329.1,527.9z"/>
	<path class="st3" d="M327.6,475.7v4.6h-8.1v-4.6c0-2.2,1.8-4.1,4.1-4.1C325.8,471.6,327.6,473.4,327.6,475.7z"/>
	<path class="st16" d="M357.2,528c0,3.1-2.5,5.5-5.5,5.5s-5.5-2.5-5.5-5.5l0-0.7l2.9-47h5.3l2.9,47L357.2,528z"/>
	<path class="st3" d="M355.7,475.7v4.6h-8.1v-4.6c0-2.2,1.8-4.1,4.1-4.1C353.9,471.6,355.7,473.5,355.7,475.7z"/>
	<path class="st13" d="M339.2,449.3c1.5-2,4.7,2.1,8.2,0.3c0.5-0.2,0.9-0.5,1.1-0.3c0.7,0.6,0.3,3.3,0,7.6c-0.1,0.8-0.1,2.8,0.1,5
		c0.5,5.2,1.8,10.5,2.3,11.6c0.2,0.5,0.8,1.9,0.8,3.8c0,0.5-0.1,0.9-0.1,1.2c-1.5-1.2-2.1-2.5-2.3-3.5c-0.1-0.6-0.2-1.1-0.3-1.1
		c-0.2,0,0,2-0.9,4.1c-0.3,0.6-0.4,1-0.6,1c-0.6-0.1-0.4-4.5-1.2-10.6c-0.6-4.4-0.4-6.9-0.4-9.6c-0.1-4.4,1.5-5.4,0.6-6.7
		c-0.2-0.3-0.6-0.4-1.4-0.5c-1.1-0.2-1.7,0-2.9,0c-1.5,0.1-3.2,0.1-3.4-0.8C338.7,450.4,338.9,449.7,339.2,449.3z"/>
</g>
</svg>
